<svg xmlns="http://www.w3.org/2000/svg" xmlns:xlink="http://www.w3.org/1999/xlink" width="637pt" height="314pt" viewBox="0.00 0.00 637.00 314.00">
<g id="graph0" class="graph" transform="scale(1 1) rotate(0) translate(4 310.02)">
<title>DFA</title>
<polygon fill="white" stroke="none" points="-4,4 -4,-310.02 633.18,-310.02 633.18,4 -4,4"/>
<!-- start -->
<g id="node1" class="node">
<title>start</title>
<ellipse fill="black" stroke="black" cx="1.8" cy="-106.52" rx="1.8" ry="1.8"/>
</g>
<!-- q0 -->
<g id="node2" class="node">
<title>q0</title>
<ellipse fill="none" stroke="black" cx="61.29" cy="-106.52" rx="20.69" ry="20.69"/>
<text xml:space="preserve" text-anchor="middle" x="61.29" y="-102.32" font-family="Times,serif" font-size="14.00">q0</text>
</g>
<!-- start&#45;&gt;q0 -->
<g id="edge1" class="edge">
<title>start-&gt;q0</title>
<path fill="none" stroke="black" d="M3.8,-106.52C7.06,-106.52 17.87,-106.52 29.17,-106.52"/>
<polygon fill="black" stroke="black" points="28.86,-110.02 38.86,-106.52 28.86,-103.02 28.86,-110.02"/>
</g>
<!-- q1 -->
<g id="node3" class="node">
<title>q1</title>
<ellipse fill="none" stroke="black" cx="241.28" cy="-136.52" rx="20.69" ry="20.69"/>
<ellipse fill="none" stroke="black" cx="241.28" cy="-136.52" rx="24.69" ry="24.69"/>
<text xml:space="preserve" text-anchor="middle" x="241.28" y="-132.32" font-family="Times,serif" font-size="14.00">q1</text>
</g>
<!-- q0&#45;&gt;q1 -->
<g id="edge2" class="edge">
<title>q0-&gt;q1</title>
<path fill="none" stroke="black" d="M81.84,-110.23C87.68,-111.32 94.09,-112.49 99.99,-113.52 135.73,-119.77 176.68,-126.43 205.08,-130.96"/>
<polygon fill="black" stroke="black" points="204.5,-134.41 214.93,-132.53 205.6,-127.5 204.5,-134.41"/>
<text xml:space="preserve" text-anchor="middle" x="149.68" y="-130.19" font-family="Times,serif" font-size="14.00">a</text>
</g>
<!-- q2 -->
<g id="node4" class="node">
<title>q2</title>
<ellipse fill="none" stroke="black" cx="149.68" cy="-75.52" rx="20.69" ry="20.69"/>
<ellipse fill="none" stroke="black" cx="149.68" cy="-75.52" rx="24.69" ry="24.69"/>
<text xml:space="preserve" text-anchor="middle" x="149.68" y="-71.32" font-family="Times,serif" font-size="14.00">q2</text>
</g>
<!-- q0&#45;&gt;q2 -->
<g id="edge3" class="edge">
<title>q0-&gt;q2</title>
<path fill="none" stroke="black" d="M81.04,-99.8C91.04,-96.21 103.65,-91.68 115.27,-87.51"/>
<polygon fill="black" stroke="black" points="116.33,-90.85 124.56,-84.18 113.96,-84.26 116.33,-90.85"/>
<text xml:space="preserve" text-anchor="middle" x="103.49" y="-97.08" font-family="Times,serif" font-size="14.00">b</text>
</g>
<!-- q3 -->
<g id="node5" class="node">
<title>q3</title>
<ellipse fill="none" stroke="black" cx="333.67" cy="-159.52" rx="20.69" ry="20.69"/>
<ellipse fill="none" stroke="black" cx="333.67" cy="-159.52" rx="24.69" ry="24.69"/>
<text xml:space="preserve" text-anchor="middle" x="333.67" y="-155.32" font-family="Times,serif" font-size="14.00">q3</text>
</g>
<!-- q1&#45;&gt;q3 -->
<g id="edge4" class="edge">
<title>q1-&gt;q3</title>
<path fill="none" stroke="black" d="M265.56,-142.44C275.57,-144.99 287.48,-148.02 298.47,-150.82"/>
<polygon fill="black" stroke="black" points="297.45,-154.17 308,-153.25 299.18,-147.39 297.45,-154.17"/>
<text xml:space="preserve" text-anchor="middle" x="287.47" y="-152.91" font-family="Times,serif" font-size="14.00">a</text>
</g>
<!-- q4 -->
<g id="node6" class="node">
<title>q4</title>
<ellipse fill="none" stroke="black" cx="333.67" cy="-77.52" rx="20.69" ry="20.69"/>
<ellipse fill="none" stroke="black" cx="333.67" cy="-77.52" rx="24.69" ry="24.69"/>
<text xml:space="preserve" text-anchor="middle" x="333.67" y="-73.32" font-family="Times,serif" font-size="14.00">q4</text>
</g>
<!-- q1&#45;&gt;q4 -->
<g id="edge5" class="edge">
<title>q1-&gt;q4</title>
<path fill="none" stroke="black" d="M262.34,-123.43C274.31,-115.61 289.73,-105.55 303.08,-96.84"/>
<polygon fill="black" stroke="black" points="304.62,-100.01 311.08,-91.61 300.8,-94.15 304.62,-100.01"/>
<text xml:space="preserve" text-anchor="middle" x="287.47" y="-112.99" font-family="Times,serif" font-size="14.00">b</text>
</g>
<!-- q2&#45;&gt;q1 -->
<g id="edge6" class="edge">
<title>q2-&gt;q1</title>
<path fill="none" stroke="black" d="M171.41,-88.13C179.92,-93.42 189.82,-99.73 198.59,-105.72 202.88,-108.66 207.37,-111.84 211.73,-115"/>
<polygon fill="black" stroke="black" points="209.63,-117.8 219.76,-120.91 213.78,-112.16 209.63,-117.8"/>
<text xml:space="preserve" text-anchor="middle" x="195.48" y="-109.92" font-family="Times,serif" font-size="14.00">a</text>
</g>
<!-- q5 -->
<g id="node7" class="node">
<title>q5</title>
<ellipse fill="none" stroke="black" cx="426.05" cy="-57.52" rx="20.69" ry="20.69"/>
<ellipse fill="none" stroke="black" cx="426.05" cy="-57.52" rx="24.69" ry="24.69"/>
<text xml:space="preserve" text-anchor="middle" x="426.05" y="-53.32" font-family="Times,serif" font-size="14.00">q5</text>
</g>
<!-- q2&#45;&gt;q5 -->
<g id="edge7" class="edge">
<title>q2-&gt;q5</title>
<path fill="none" stroke="black" d="M173.63,-68.08C211.82,-56.58 290.87,-36.51 358.36,-43.52 368.96,-44.62 380.36,-46.68 390.69,-48.89"/>
<polygon fill="black" stroke="black" points="389.78,-52.27 400.31,-51.07 391.33,-45.45 389.78,-52.27"/>
<text xml:space="preserve" text-anchor="middle" x="287.47" y="-48.77" font-family="Times,serif" font-size="14.00">b</text>
</g>
<!-- q3&#45;&gt;q3 -->
<g id="edge8" class="edge">
<title>q3-&gt;q3</title>
<path fill="none" stroke="black" d="M325.14,-182.8C324.33,-193.21 327.17,-202.22 333.67,-202.22 337.63,-202.22 340.23,-198.87 341.47,-193.9"/>
<polygon fill="black" stroke="black" points="344.94,-194.51 342.1,-184.31 337.96,-194.06 344.94,-194.51"/>
<text xml:space="preserve" text-anchor="middle" x="333.67" y="-206.42" font-family="Times,serif" font-size="14.00">a</text>
</g>
<!-- q6 -->
<g id="node8" class="node">
<title>q6</title>
<ellipse fill="none" stroke="black" cx="426.05" cy="-193.52" rx="20.69" ry="20.69"/>
<text xml:space="preserve" text-anchor="middle" x="426.05" y="-189.32" font-family="Times,serif" font-size="14.00">q6</text>
</g>
<!-- q3&#45;&gt;q6 -->
<g id="edge9" class="edge">
<title>q3-&gt;q6</title>
<path fill="none" stroke="black" d="M357.01,-167.93C368.74,-172.34 383.25,-177.8 395.85,-182.54"/>
<polygon fill="black" stroke="black" points="394.31,-185.7 404.9,-185.94 396.78,-179.15 394.31,-185.7"/>
<text xml:space="preserve" text-anchor="middle" x="379.86" y="-181.74" font-family="Times,serif" font-size="14.00">b</text>
</g>
<!-- q4&#45;&gt;q5 -->
<g id="edge11" class="edge">
<title>q4-&gt;q5</title>
<path fill="none" stroke="black" d="M357.94,-72.37C367.88,-70.17 379.69,-67.56 390.6,-65.15"/>
<polygon fill="black" stroke="black" points="391.06,-68.63 400.07,-63.05 389.54,-61.79 391.06,-68.63"/>
<text xml:space="preserve" text-anchor="middle" x="379.86" y="-72.32" font-family="Times,serif" font-size="14.00">b</text>
</g>
<!-- q7 -->
<g id="node9" class="node">
<title>q7</title>
<ellipse fill="none" stroke="black" cx="603.66" cy="-144.52" rx="20.69" ry="20.69"/>
<text xml:space="preserve" text-anchor="middle" x="603.66" y="-140.32" font-family="Times,serif" font-size="14.00">q7</text>
</g>
<!-- q4&#45;&gt;q7 -->
<g id="edge10" class="edge">
<title>q4-&gt;q7</title>
<path fill="none" stroke="black" d="M352.37,-94.31C364.99,-105.2 382.93,-118.61 401.36,-125.52 458.52,-146.97 530.92,-148.04 571.48,-146.53"/>
<polygon fill="black" stroke="black" points="571.41,-150.04 581.24,-146.08 571.08,-143.04 571.41,-150.04"/>
<text xml:space="preserve" text-anchor="middle" x="472.25" y="-147" font-family="Times,serif" font-size="14.00">a</text>
</g>
<!-- q5&#45;&gt;q5 -->
<g id="edge13" class="edge">
<title>q5-&gt;q5</title>
<path fill="none" stroke="black" d="M417.53,-80.8C416.72,-91.21 419.56,-100.22 426.05,-100.22 430.01,-100.22 432.62,-96.87 433.86,-91.9"/>
<polygon fill="black" stroke="black" points="437.33,-92.51 434.48,-82.31 430.34,-92.06 437.33,-92.51"/>
<text xml:space="preserve" text-anchor="middle" x="426.05" y="-104.42" font-family="Times,serif" font-size="14.00">b</text>
</g>
<!-- q8 -->
<g id="node10" class="node">
<title>q8</title>
<ellipse fill="none" stroke="black" cx="514.44" cy="-57.52" rx="20.69" ry="20.69"/>
<text xml:space="preserve" text-anchor="middle" x="514.44" y="-53.32" font-family="Times,serif" font-size="14.00">q8</text>
</g>
<!-- q5&#45;&gt;q8 -->
<g id="edge12" class="edge">
<title>q5-&gt;q8</title>
<path fill="none" stroke="black" d="M451.12,-57.52C460.66,-57.52 471.77,-57.52 481.94,-57.52"/>
<polygon fill="black" stroke="black" points="481.79,-61.02 491.79,-57.52 481.79,-54.02 481.79,-61.02"/>
<text xml:space="preserve" text-anchor="middle" x="472.25" y="-61.72" font-family="Times,serif" font-size="14.00">a</text>
</g>
<!-- q6&#45;&gt;q7 -->
<g id="edge14" class="edge">
<title>q6-&gt;q7</title>
<path fill="none" stroke="black" d="M446.55,-188.79C472.58,-182.38 520.05,-170.38 560.14,-158.52 564.25,-157.3 568.57,-155.96 572.82,-154.6"/>
<polygon fill="black" stroke="black" points="573.83,-157.95 582.25,-151.51 571.65,-151.3 573.83,-157.95"/>
<text xml:space="preserve" text-anchor="middle" x="514.44" y="-180.53" font-family="Times,serif" font-size="14.00">a</text>
</g>
<!-- q9 -->
<g id="node11" class="node">
<title>q9</title>
<ellipse fill="none" stroke="black" cx="514.44" cy="-250.52" rx="20.69" ry="20.69"/>
<text xml:space="preserve" text-anchor="middle" x="514.44" y="-246.32" font-family="Times,serif" font-size="14.00">q9</text>
</g>
<!-- q6&#45;&gt;q9 -->
<g id="edge15" class="edge">
<title>q6-&gt;q9</title>
<path fill="none" stroke="black" d="M443.81,-204.08C453.24,-210.07 465.2,-217.74 475.75,-224.72 479.58,-227.26 483.61,-229.97 487.55,-232.65"/>
<polygon fill="black" stroke="black" points="485.52,-235.5 495.75,-238.26 489.47,-229.72 485.52,-235.5"/>
<text xml:space="preserve" text-anchor="middle" x="472.25" y="-228.92" font-family="Times,serif" font-size="14.00">b</text>
</g>
<!-- q7&#45;&gt;q7 -->
<g id="edge16" class="edge">
<title>q7-&gt;q7</title>
<path fill="none" stroke="black" d="M599.34,-165.22C598.86,-174.83 600.31,-183.22 603.66,-183.22 605.54,-183.22 606.82,-180.56 607.5,-176.53"/>
<polygon fill="black" stroke="black" points="610.99,-176.87 607.91,-166.73 603.99,-176.58 610.99,-176.87"/>
<text xml:space="preserve" text-anchor="middle" x="603.66" y="-187.42" font-family="Times,serif" font-size="14.00">a</text>
</g>
<!-- q7&#45;&gt;q7 -->
<g id="edge17" class="edge">
<title>q7-&gt;q7</title>
<path fill="none" stroke="black" d="M596.41,-164.28C592.88,-182.11 595.3,-201.22 603.66,-201.22 610.25,-201.22 613.15,-189.32 612.34,-175.54"/>
<polygon fill="black" stroke="black" points="615.83,-175.26 611.1,-165.78 608.89,-176.14 615.83,-175.26"/>
<text xml:space="preserve" text-anchor="middle" x="603.66" y="-205.42" font-family="Times,serif" font-size="14.00">b</text>
</g>
<!-- q8&#45;&gt;q7 -->
<g id="edge19" class="edge">
<title>q8-&gt;q7</title>
<path fill="none" stroke="black" d="M529.84,-71.89C543.6,-85.62 564.55,-106.51 580.44,-122.36"/>
<polygon fill="black" stroke="black" points="577.61,-124.48 587.16,-129.07 582.55,-119.53 577.61,-124.48"/>
<text xml:space="preserve" text-anchor="middle" x="556.64" y="-105.22" font-family="Times,serif" font-size="14.00">b</text>
</g>
<!-- q10 -->
<g id="node12" class="node">
<title>q10</title>
<ellipse fill="none" stroke="black" cx="603.66" cy="-25.52" rx="25.52" ry="25.52"/>
<text xml:space="preserve" text-anchor="middle" x="603.66" y="-21.32" font-family="Times,serif" font-size="14.00">q10</text>
</g>
<!-- q8&#45;&gt;q10 -->
<g id="edge18" class="edge">
<title>q8-&gt;q10</title>
<path fill="none" stroke="black" d="M534.37,-50.58C544.39,-46.9 557.01,-42.27 568.66,-38"/>
<polygon fill="black" stroke="black" points="569.82,-41.3 578,-34.57 567.41,-34.73 569.82,-41.3"/>
<text xml:space="preserve" text-anchor="middle" x="556.64" y="-47.64" font-family="Times,serif" font-size="14.00">a</text>
</g>
<!-- q9&#45;&gt;q1 -->
<g id="edge20" class="edge">
<title>q9-&gt;q1</title>
<path fill="none" stroke="black" d="M493.53,-253.28C454.99,-257.58 368.78,-262.18 308.97,-227.52 286.03,-214.23 268.7,-189.54 257.46,-169.23"/>
<polygon fill="black" stroke="black" points="260.59,-167.66 252.85,-160.43 254.39,-170.91 260.59,-167.66"/>
<text xml:space="preserve" text-anchor="middle" x="379.86" y="-255.95" font-family="Times,serif" font-size="14.00">a</text>
</g>
<!-- q9&#45;&gt;q9 -->
<g id="edge21" class="edge">
<title>q9-&gt;q9</title>
<path fill="none" stroke="black" d="M506.81,-270.03C505.63,-280.12 508.18,-289.22 514.44,-289.22 518.16,-289.22 520.57,-286.01 521.67,-281.29"/>
<polygon fill="black" stroke="black" points="525.15,-281.67 522.02,-271.55 518.16,-281.41 525.15,-281.67"/>
<text xml:space="preserve" text-anchor="middle" x="514.44" y="-293.42" font-family="Times,serif" font-size="14.00">b</text>
</g>
<!-- q10&#45;&gt;q4 -->
<g id="edge23" class="edge">
<title>q10-&gt;q4</title>
<path fill="none" stroke="black" d="M578.23,-20.04C539.45,-12.48 461.98,-2.06 401.36,-23.52 385.47,-29.15 370.6,-40.35 358.95,-51.1"/>
<polygon fill="black" stroke="black" points="356.51,-48.59 351.79,-58.08 361.39,-53.61 356.51,-48.59"/>
<text xml:space="preserve" text-anchor="middle" x="472.25" y="-15.38" font-family="Times,serif" font-size="14.00">b</text>
</g>
<!-- q10&#45;&gt;q10 -->
<g id="edge22" class="edge">
<title>q10-&gt;q10</title>
<path fill="none" stroke="black" d="M594.95,-49.69C594.23,-60.12 597.14,-69.04 603.66,-69.04 607.53,-69.04 610.13,-65.9 611.45,-61.16"/>
<polygon fill="black" stroke="black" points="614.93,-61.45 612.25,-51.2 607.96,-60.89 614.93,-61.45"/>
<text xml:space="preserve" text-anchor="middle" x="603.66" y="-73.24" font-family="Times,serif" font-size="14.00">a</text>
</g>
</g>
</svg>
